<svg id="Layer_1" data-name="Layer 1" xmlns="http://www.w3.org/2000/svg" xmlns:xlink="http://www.w3.org/1999/xlink" viewBox="0 0 1748.38 943.37"><defs><style>.cls-1{fill:none;}.cls-2{font-size:244.84px;font-family:HelveticaNeue-Light, Helvetica Neue;font-weight:300;}.cls-2,.cls-8{fill:#38c4ea;}.cls-3{fill:#fcc280;}.cls-4{fill:#70c5a8;}.cls-5{fill:#ef6ca8;letter-spacing:0em;}.cls-12,.cls-6{fill:#cac3c8;}.cls-14,.cls-7{fill:#3aba98;}.cls-16,.cls-9{fill:#e8408c;}.cls-10,.cls-17{fill:#ffcd75;}.cls-11{clip-path:url(#clip-path);}.cls-12{fill-rule:evenodd;}.cls-13{font-size:241.11px;fill:#00bde8;font-family:HelveticaNeue-Bold, Helvetica Neue;font-weight:700;}.cls-14{font-size:278.37px;}.cls-15{font-size:276.77px;}.cls-16,.cls-21{font-size:165px;}.cls-17{font-size:168.19px;}.cls-18{letter-spacing:-0.09em;}.cls-19{letter-spacing:-0.04em;}.cls-20{letter-spacing:0em;}.cls-21{fill:#231f20;}</style><clipPath id="clip-path" transform="translate(-138.62 -68.31)"><rect id="SVGID" class="cls-1" x="33" y="71.85" width="717.41" height="692.46"/></clipPath></defs><text class="cls-2" transform="translate(0 868.7)">snel<tspan class="cls-3" x="421.6" y="0">.</tspan><tspan class="cls-4" x="489.67" y="0">gatech</tspan><tspan class="cls-3" x="1210.95" y="0">.</tspan><tspan class="cls-5" x="1279.01" y="0">edu</tspan><tspan class="cls-6" x="1678.09" y="0"> </tspan></text><ellipse class="cls-7" cx="417.59" cy="330.33" rx="221.39" ry="185.98" transform="translate(-66.79 666.91) rotate(-87.85)"/><ellipse class="cls-8" cx="422.41" cy="425.2" rx="121.43" ry="304.21" transform="translate(-150.5 -56.17) rotate(-1.62)"/><ellipse class="cls-9" cx="345.18" cy="457.38" rx="69.18" ry="291.04" transform="translate(-282.03 89.7) rotate(-21.46)"/><ellipse class="cls-10" cx="363.18" cy="442.81" rx="286.51" ry="35.75" transform="matrix(0.04, -1, 1, 0.04, -231.57, 720.8)"/><ellipse class="cls-1" cx="403.32" cy="507.02" rx="39.13" ry="96.67" transform="translate(-352.62 242.12) rotate(-33.83)"/><ellipse class="cls-1" cx="427.25" cy="354.82" rx="217.46" ry="40" transform="translate(-266.09 313.34) rotate(-42.48)"/><ellipse class="cls-10" cx="295.47" cy="276.3" rx="10.22" ry="20.84"/><ellipse class="cls-10" cx="228.3" cy="133.13" rx="12.94" ry="41.66"/><ellipse class="cls-10" cx="260.23" cy="294.07" rx="10.22" ry="49.11"/><ellipse class="cls-10" cx="302.78" cy="343.18" rx="17.94" ry="34.05"/><ellipse class="cls-8" cx="466.98" cy="686.42" rx="43.75" ry="24.71" transform="translate(-405.1 1007.05) rotate(-83.71)"/><ellipse class="cls-8" cx="404.11" cy="263.8" rx="12.8" ry="24.03" transform="translate(-145.93 -56.75) rotate(-1.62)"/><ellipse class="cls-3" cx="233.8" cy="609.88" rx="26.43" ry="52.58"/><ellipse class="cls-8" cx="470.61" cy="695.31" rx="38.62" ry="34.53" transform="translate(-158.14 -54.69) rotate(-1.62)"/><ellipse class="cls-8" cx="390.74" cy="155.25" rx="18.51" ry="39.11" transform="translate(-142.86 -57.17) rotate(-1.62)"/><ellipse class="cls-7" cx="465.02" cy="141.97" rx="19.68" ry="17.62" transform="translate(-142.45 -55.07) rotate(-1.62)"/><ellipse class="cls-8" cx="323.04" cy="510.17" rx="34.32" ry="111.44"/><ellipse class="cls-4" cx="457.82" cy="586.35" rx="87.14" ry="26.97" transform="translate(-393.05 732.73) rotate(-68.79)"/><ellipse class="cls-3" cx="238.41" cy="497.46" rx="19.07" ry="79.72"/><ellipse class="cls-10" cx="388.63" cy="223.17" rx="12.8" ry="24.03" transform="translate(-144.79 -57.21) rotate(-1.62)"/><ellipse class="cls-8" cx="302.78" cy="455.29" rx="24.71" ry="62.75"/><ellipse class="cls-4" cx="495.98" cy="642.86" rx="87.14" ry="26.97" transform="translate(-371.95 931.44) rotate(-78.42)"/><ellipse class="cls-8" cx="465.17" cy="588.12" rx="24.9" ry="49.47" transform="translate(-155.1 -54.89) rotate(-1.62)"/><g class="cls-11"><g class="cls-11"><path class="cls-12" d="M542.13,521.37c-1.76,11.1-3.93,22.19-4.7,33.37-2.89,42-3.66,84,3,125.78,2.32,14.51,5.63,28.87,8.48,43.29.35,1.81.67,3.61,1.1,5.94H472.32c0-9.26.45-18.55-.13-27.77s-2.13-18.18-3.42-27.25c-.17-1.2-1.2-2.33-2-3.36a39.82,39.82,0,0,0-2.79-2.88c-6.47-6.74-15.35-12.47-18.72-20.51-3.26-7.76-.9-17.9-.9-27q0-72.29,0-144.59c0-10,10.75-20.64,20.87-20.69,2.95,0,6-.45,8.83.07C486,458,494.58,453.15,501.6,444c2.41-3.18,5.65-5.71,8.35-8.67,2.45-2.67,4.86-4.14,8.95-3.77a7.74,7.74,0,0,0,8.61-8.35c-.44-4.57-3.21-7.34-7.72-7.91a7.73,7.73,0,0,0-8.51,8.45c.43,4.51-1.65,6.93-4.38,9.55-2.31,2.23-5,4.27-6.71,6.89-8.59,13-21,13.52-34.5,10.58a35.32,35.32,0,0,1,6.26,0c11,2.05,18.91-2.41,25.65-10.75,2.64-3.26,4.86-6,4.47-10.51-.21-2.27.74-4.66,1.23-7,1.08-5.14-1.27-9.61-5.84-10.67s-7.91.91-9.76,5,.54,9,5.46,10.86a30.74,30.74,0,0,0,4.74,1c1.63,8-5.65,10.32-9.23,14.75-5.41,6.7-12.94,2.09-19.34,3.78l-1-1.5c2.49-2.54,4.82-5.27,7.53-7.57,4-3.37,6.11-7.28,5.24-12.59-.9-5.47,1-9.65,5.27-13.32A169.93,169.93,0,0,0,500,398.72c3.58-3.85,7.24-6.07,13-6.53,3.75-.29,7.57-4.35,10.63-7.44,3.93-4,7.78-7.41,13.81-6.07a13.58,13.58,0,0,1,5.65,2.23c3.82,3.13,7.7,3.92,11.61.75,2.89-2.35,4.27-5.59,2.35-9.28-2.24-4.28-5.55-6.4-10.55-4.76a8.25,8.25,0,0,1-2.29,0c5.34-6.41,5.34-6.41,10.61-1.48,3.91,3.66,8.83,3.88,12.08.37s3.46-7.18.46-10.85-8-3.83-12.16-.68c-5.77,4.32-11.4,8.95-17.64,12.46-2.69,1.51-6.78.54-10.62-.54,10.93.82,15.55-7.82,22.34-13.25,5.86-4.68,13.07-3.07,19.81-1.22,1.26.34,2.33,1.42,3.59,1.69,4.55,1,8-.79,9.65-5.09,1.49-3.94.3-7.44-3.35-9.75-4.05-2.57-7.78-1.65-10.7,1.84-1.32,1.58-1.88,3.8-2.83,5.83-.36.11-.89.47-1.37.4-10.48-1.55-18.66,2.06-24.85,10.66-3.12,4.32-7.45,4.52-13.42,2.29,1.59-2.69,2.6-5.3,4.34-7.21,4.15-4.54,8.84-8.6,13-13.17,4-4.41,8.16-7.24,14.55-6.55,2.19.24,5-1.44,6.88-3,3.61-3.15,6.73-6.86,10.16-10.46,2.2.64,3.9,1.25,5.67,1.6a11.22,11.22,0,1,0,4.34-22c-6.29-1-13.15,3.77-12.69,10.26.71,9.92-7.89,12.45-12.73,17.84-1.25,1.39-5,.56-8.53.82,0-15.38-.1-30.05.14-44.7,0-1.81,1.64-3.86,3-5.34,4.36-4.71,9-9.2,13.73-14.05,2.06.81,3.94,1.68,5.9,2.29a13.35,13.35,0,1,0,5.87-26c-7.71-1.24-15.59,4.82-14.93,12.82.48,5.73-1.46,9.4-5.51,12.24-11.75,8.24-15.55,19.36-13.71,33.28.83,6.32-.61,12.95.31,19.23,1.53,10.47-3.16,17.21-12.3,23.27,0-8.49-.08-16.3.08-24.11a5.1,5.1,0,0,1,1.82-3.42c9.64-7.37,5.25-17.7,5.19-26.82,0-2.85-4.56-5.54-6.64-8.57-1.24-1.81-3-4.9-2.27-6,1.07-1.7,4-2.29,6.26-3.18.69-.27,1.6.11,2.38,0,4.74-.49,7.2-3.43,7.6-7.9.39-4.18-3.77-8.5-8-8.47-4.62,0-8.45,2.75-8.32,7,.14,4.41-1.54,7.15-3.57,10.58s-1.12,7.51,2.51,9.93c9.51,6.34,6.61,15.94,6.62,24.72,0,1.31-1.29,3-2.46,3.87-5,3.62-5.45,8.64-5.26,14.21.27,8,.07,15.92.07,23.89l-1.68.19a15.29,15.29,0,0,1-1-3.71c-.08-9.36-.32-18.75.12-28.1a14.07,14.07,0,0,1,3.56-8.11c7.3-8,6.72-17-2.51-23-3-2-3.64-3.94-3.74-7.08-.49-16.95-.55-16.95,11.69-29.19l10.95-10.92a32.6,32.6,0,0,0,5.15,1.81,8.08,8.08,0,0,0,9.61-6.34c.86-4.63-1.21-7.86-5.48-9.48-4.57-1.72-9.07.33-9.77,4.34-1.58,9-8.31,13.68-14.19,18.56-9.52,7.9-14,17-12,29.26.34,2-.14,4.2-.26,6.66-7.39,2.16-12.69,6.51-12.77,14.54s5.52,12.24,12.72,14.87c0,18.5.17,36.69-.19,54.87,0,2.47-2.24,5.29-4.16,7.25-11.78,12.07-23.65,24.06-35.75,35.82-3.74,3.62-6.1,7.33-5.18,12.61,1,5.88-1.51,10-5.75,13.94-9,8.4-17.44,17.39-26.31,25.94a14.23,14.23,0,0,0-4.82,11.2q.23,85.95,0,171.91a14,14,0,0,0,4.76,11.23c5.47,5.12,10.39,10.85,16,15.81,3.79,3.35,5,7.6,3.58,11.54-3.72,10-1.56,20.09-2.12,30.12-.28,5-.06,10.1-.06,15.81H441.12c-.12-2.62-.28-5.45-.38-8.27-.51-14.92-.76-29.86-1.74-44.75-.2-3-2.48-6.62-4.93-8.5-8.9-6.85-10.93-15.45-10.84-26.45.53-59.7.32-119.42.13-179.13,0-5,1.12-8.76,5-11.85,1.88-1.49,3.28-3.57,5.17-5,9.09-7,14.19-15.61,11.87-27.57-.65-3.3.35-5.9,3.81-7.9,5.63-3.25,8-8.66,6.26-15.09-1-3.48.4-5.42,2.65-7.62,8-7.87,16-15.81,23.81-23.89q9.24-9.54,18-19.5c5.59-6.33,4.7-15.54-2.74-20.23-4.24-2.67-4.91-5.61-4.89-9.8.05-10.44.15-20.89-.24-31.32-.17-4.73,1.47-7.95,4.81-11.14,8.34-7.93,16.16-16.42,24.54-24.3,3.67-3.46,5.26-7.08,4.77-12-.32-3.18-.06-6.41-.06-9.63,0-11,0-11,9.1-19.18a50,50,0,0,0,6.11,2.94,14.12,14.12,0,1,0,7.75-27.12c-7.8-1.71-16.31,3.08-16.68,10.91-.29,6.26-3.33,9.89-7.36,13.3-4.23,3.57-6.5,7.7-5.55,13.27,2.44,14.22-2.43,25.21-13.91,33.92-5.29,4-9.78,9.16-14.22,14.14-2.93,3.3-5.14,7.24-7.69,10.92-7.39-6-7.9-11.84-.77-19.05,5.65-5.72,11.12-11.63,17.11-17a14.91,14.91,0,0,0,5.39-13.37c-.41-5.3-.08-10.66-.08-16.06,2.59-.52,5-.58,7.06-1.53,4-1.89,6.2-5.18,4.7-9.79-1.31-4-4.3-6.13-8.59-5.74-4.73.44-7.18,3.27-7.16,8,0,8.83.48,17.67.13,26.48a14.22,14.22,0,0,1-3.47,8.27c-5.54,6.17-11.63,11.84-17.49,17.72-8.57,8.61-8.65,16-.29,24.63,5.16,5.31,5.16,5.31,5,13.4C478.52,288,472.08,282.51,467,276c-3.09-3.95-2.05-9,2.09-12.93,7.93-7.59,15.34-15.73,23.43-23.14,4.92-4.51,7.35-9.22,6.8-16.06-.61-7.72-.14-15.52-.14-23.28,0-3.25.46-5.84,3.52-8.25,4.33-3.41,4.2-8.41.83-11.94a8,8,0,0,0-11.48-.34c-3.75,3.45-4.26,8.32.06,11.85,3.35,2.73,3.42,5.66,3.38,9.11-.08,9.91,2.46,20.88-1,29.41s-12.9,14.57-19.75,21.68c-2.56,2.66-5.18,5.26-7.77,7.88l-1.58-1.06a35.89,35.89,0,0,1,3.48-5c6.54-6.7,13.25-13.25,19.84-19.92,6.31-6.4,6.36-21.88.19-28.35-2.33-2.44-4.72-4.32-4.16-8.75s-4-8.07-8.32-7.87-8.28,4.44-8.22,8.47c.07,4.42,4.42,8.26,9.24,8.18,8.13-.15,11.14,3,11.86,10.75.77,8.09-1.26,14.39-7.79,19.66-5.32,4.29-9.82,9.59-15.14,14.88-1.11-4.33-1.1-7,2.4-9.72,4.63-3.61,4.74-8.13,1.48-11.86a8.22,8.22,0,0,0-11.52-.9c-4.08,3.43-3.85,7.57,0,12.63a14.72,14.72,0,0,1,3,7.6,199,199,0,0,1,.07,20.87c-.21,4.63,1,8.15,4.52,11.31,5,4.47,9.3,9.65,14.29,14.09,3.95,3.49,5.73,7.34,5.13,12.6-.35,3.16.32,6.46-.09,9.61a8.31,8.31,0,0,1-2.72,5c-11,8.67-10.56,18.33,1.39,26.09.41.25.62.8.5.64L448.51,385.2c-10.05-2.15-16.33,0-19.61,7.59-3.21,7.43-.4,13.5,9,19.52,3.87,14.32-1.2,24.68-14.38,32.08,0-18.74-.13-37.12.16-55.49,0-2.26,1.83-4.87,3.5-6.68A218.82,218.82,0,0,1,443,366.3c4.47-3.92,6.23-8.3,5.63-14.1-.38-3.71,0-7.49-.08-11.24-.08-4.52-.26-8.59,4.18-12,3.75-2.93,2.84-8.17-.82-11.21s-7.36-3-10.89.14-4.28,8.17-.39,11.24c4.68,3.69,3.65,8.1,4.29,12.83,1.83,13.41-3.51,23-13.79,30.87-2.49,1.9-4.35,4.63-6.49,7l-2-1.51c1.54-2.37,2.65-5.23,4.7-7,6.56-5.71,11.13-11.87,9.76-21.36-.3-2.1,2.57-4.72,4.12-7,2.49-3.69,2-9-1.39-11.54-3.76-2.85-7.61-2.55-10.85.74s-3.36,7.06-.44,10.83c7.58,9.8,6.34,17-5.11,25.5,0-13.35,1-26.15-.26-38.71-1.64-15.94,2.13-28.69,15.57-38.06,4-2.83,5.16-6.94,5.1-11.92-.22-20.62.08-41.23-.22-61.85-.07-5.29,1.48-9.06,5.34-12.57a177.82,177.82,0,0,0,15.82-16c2.19-2.58,3.38-6.34,4.14-9.76.68-3.06.34-6.41.11-9.6-.46-6.31.34-11.18,6.36-15.64,8.29-6.11,7.61-18.43.07-25.47a17.67,17.67,0,0,0-25.21,1,17.44,17.44,0,0,0,1.84,25.64,75.67,75.67,0,0,0,7.39,4.68c0,5.69.32,11.81-.17,17.87-.2,2.35-1.86,4.91-3.55,6.72-5.66,6.07-11.53,11.95-17.55,17.66A13.18,13.18,0,0,0,433.85,213c.22,11.5,0,23-.06,34.51,0,.16-.33.3-1,.83-6.87-5.5-12.33-10.88-11.56-21.45,1.13-15.44.37-31,.23-46.56,0-4,.73-6.7,4.36-9.32a13.64,13.64,0,0,0,1.65-21,14.11,14.11,0,0,0-20.69.82c-5.61,6.54-4.27,15.76,3.12,21,1.5,1.06,3.16,1.92,4.65,2.81v28c-8.9-9-16.73-16.81-24.27-24.85-1-1.11-.81-3.55-.84-5.38-.11-5.09.07-10.18-.07-15.26-.13-4.16.41-7.29,4.47-10.14,5.26-3.68,5.09-10.33.83-14.76a10.24,10.24,0,0,0-14.44-.58c-4.57,4.16-5.26,10.81-.27,14.78,4.11,3.27,4.81,6.89,4.14,11.13-2.57,16,2.63,28.54,15.92,37.91,12.12,8.53,17.58,20,14.79,35-1.28,6.91,1.61,12,6.72,16.81,12.9,12.23,12.86,12.47,12.19,30.36-.11,3.06-1.84,6.47-3.8,8.95-3.13,4-7.2,7.17-10.63,10.92-2.6,2.86-4.83,6.06-7.32,9.22-3.93-2.13-5.57-5.83-5.2-10.95.38-5.33.07-10.7.09-16.06,0-4.22-.34-8.1,4.08-11.3,3.69-2.66,3.09-7.23-.16-10.62s-7.13-3.77-10.86-1-5.23,7.88-2,10.49c6.76,5.49,4.78,12.34,5.05,19,.14,3.4,0,6.81,0,10.83-5.08-4.77-9.71-8.72-13.79-13.19-1.38-1.53-1.83-4.35-1.86-6.6-.16-13.12-.28-26.25.09-39.36.08-2.73,1.79-5.89,3.69-8,5.41-6,5.9-12.66.68-17.81a11.87,11.87,0,0,0-17.19.65c-4.77,5.43-4.21,12.66,2.14,17.47,3,2.24,4.05,4.41,4,7.92-.2,7.21-.06,14.43-1.35,22.81-6.3-6.51-12.63-13-18.85-19.59-.6-.64-.54-2-.55-3.1,0-10.44-.17-20.89,0-31.32.11-5.51,5.17-10.23,10.61-10.61,6.48-.44,10-3.93,9.38-9.29a8.2,8.2,0,0,0-9-7.18c-5.25.55-7.88,4.87-6.84,11.25.12.74.27,1.49.49,2.74-8.46,4.68-9.49,12.49-8.84,21.27.49,6.6.1,13.25.1,19.88l-1.54.21a22.93,22.93,0,0,1-1-4.59c-.06-22.23-.17-44.45.14-66.67,0-2.69,2.86-5.23,3.73-8s2.19-6.53,1.11-8.82-4.94-4.65-7.46-4.55-5.62,2.78-7.23,5.16c-2.28,3.37-.09,6.46,2.38,9.26,1.45,1.63,3.16,3.82,3.18,5.77.24,18.72.14,37.44.14,56.72-5-1.7-6.72-4.89-6.09-9.23.87-5.92-1.4-10.17-5.8-14-4.24-3.66-8-7.86-11.95-11.9-2.5-2.59-5.28-4.57-4.8-9.34.46-4.52-4.31-7.76-8.7-7.39s-8.06,4.63-7.74,8.75a8.6,8.6,0,0,0,8.81,7.64,37.93,37.93,0,0,0,5.92-1.12c5.68,5.81,11.66,11.58,17.17,17.76,1.76,2,2.57,5,3.26,7.64.52,2-.77,5.28.3,6.23,8,7.09,7.76,18.61,14.34,26.15a285,285,0,0,0,21.54,21.6c3.88,3.6,5.84,7.46,5,12.65-1.13,7.24,1.46,12.61,7,17.52,7.8,6.91,15,14.55,22.08,22.2,2,2.13,3.83,5.39,3.85,8.16.27,27.85.16,55.69.12,83.54a27.27,27.27,0,0,1-.59,3.67c-7.9-5.53-13.69-11-12.43-21.51,1-8.18.19-16.58.2-24.88,0-6.34.11-12.22,3.85-18.27,5.3-8.6.12-19.86-9.46-23.68a17.72,17.72,0,0,0-23.05,10.22,17.92,17.92,0,0,0,11.33,23.24,64,64,0,0,0,7.13,1.37v24.68c-9.63-9.39-18.6-18-27.39-26.86-.94-.94-1.13-2.93-1.14-4.44-.11-9.09-.05-18.19-.05-27.42,7-3,12.57-7.2,12.23-15.37-.29-7.25-5-11.51-12-13.86,1.17-7.06-2.83-11.43-7.41-15.8-8.72-8.32-17.13-17-25.61-25.51-5.36-5.42-5.31-5.89-.47-11.62,3.64-4.3,3.56-8.69-.21-12a8.13,8.13,0,0,0-11.52.59c-3.22,3.51-2.65,8.09,1,12.12,1.6,1.76,2.41,4.22,3.68,6.3,1.48,2.43,2.73,5.12,4.68,7.13,9.33,9.59,19,18.86,28.22,28.57,2.25,2.39,3.2,6,4.64,8.89l-11.87,7.43a25.79,25.79,0,0,1-3.21-3c-5.6-7.21-12.35-11.37-22-9.88-2.18.34-5.08-1.18-7-2.66-9.45-7.11-15.61-15.84-13-28.57,1.84-8.9-2.1-15.39-8.92-20.71-3.65-2.85-5.88-5.76-4.15-11.48,2.41-8-4.77-16.18-13.14-16.56-7.92-.38-15.24,6.85-14.88,14.67.35,8,7.77,14.55,15.85,13.47,3.28-.44,6.24-1.55,8.63,1.75,3.45,4.76,10.58,7.08,9.75,14.69-.06.53.07,1.08,0,1.6-2.62,15.15,2.67,26.77,14.85,36.07,3.87,2.95,7.19,4.81,12.1,4.69,10.22-.26,20.3,7.25,24,17.13.83,2.21,1.63,5.26,3.37,6.18,6.69,3.54,6.45,9.5,5.57,15.21-2.7,17.43,2.81,31,17.1,41.51,4.69,3.44,8.22,8.42,12.55,12.4,4.1,3.76,7.26,7.59,6.44,13.75-.23,1.79,1.25,3.93,2.25,5.73a9.27,9.27,0,0,0,2.78,2.87c14.82,10.31,18.11,24.3,17.83,42.08-1.09,67.73-.37,135.48-.56,203.23,0,5.61,1.33,9.92,5.71,13.23,8.38,6.34,11.35,13.62,9,24.8-2.19,10.53-.47,21.87-.5,32.84,0,1.57-.21,3.13-.36,5.27h-48.2c-.12-2.63-.2-5.46-.4-8.27-.95-12.66,2.12-25.51-2.42-38.05-1.33-3.69-.17-7.68,3.37-10.82a152.89,152.89,0,0,0,15.25-15.4c2.21-2.59,4.26-6.38,4.27-9.64q.38-87.57.08-175.11c0-2.47-.61-5.83-2.25-7.24-4.48-3.82-5.12-8.42-4.72-13.69.18-2.4-.22-4.85.07-7.22C394,432.35,392,422,381.4,414.68c-1.41-1-2-3.93-2-6-.1-5.76-3.18-9.72-8.19-9.81a8.55,8.55,0,0,0-8.51,7.95c-.18,4.86,3.51,8.15,9.53,8.49s16.34,10,16.5,15.86c.22,7.68,0,15.36,0,25l-9.36-9.34c-11.18-11.18-22.23-22.46-33.58-33.44-3.36-3.25-5-6.57-4.63-11.25.33-3.72-.2-7.52.14-11.24.39-4.4-.89-7.91-4.38-10.53s-4.42-6.26-4.33-10.57c.22-10.45-.18-20.9.18-31.33a14.42,14.42,0,0,0-5-11.94c-7.8-7.32-15.25-15-22.86-22.56.4-2.29,1.19-4.38,1-6.38-.41-4.6-3.33-7.24-7.84-7.69-4.31-.43-8.32,3.39-8.46,7.83-.14,4.71,2.33,8.54,6.8,8.22,5.58-.39,8.23,2.85,11.4,6,5.68,5.68,11.46,11.26,17,17.1,1.73,1.83,3.79,4.33,3.87,6.58.39,11.41.19,22.85.19,34.28l-2,.11c0-5.52-.62-11.12.13-16.54,1.62-11.68-2-20.75-11.53-27.68a35.09,35.09,0,0,1-6.26-6.22c-4.83-5.9-10.32-9.64-18.58-8.58-2.66.34-5.64-1.89-9.27-3.24,2.16-2.57,3.79-3.95,4.7-5.71a8.19,8.19,0,0,0-3.38-11.1c-4.25-2.31-7.84-1.06-10.57,2.56-2.91,3.86-2.07,7.59,1.27,10.75,3.09,2.93,6.08,6.15,9.67,8.32a18.89,18.89,0,0,0,9.58,2.56c4.92-.06,8.81,1,11.94,5a28.1,28.1,0,0,0,6.24,6.22c14.53,9.54,13.51,38.41,10.78,38.21v-9.23c0-3.48.1-7,0-10.44-.26-6.73-19.17-26.48-25.77-25.71-10.31,1.21-17.12-3.22-23.35-10.58-3.42-4-7.94-7.14-12.7-11.31,3.83-2.47,6.36-3.79,8.49-5.57a13.23,13.23,0,0,0,1-19.3,13.46,13.46,0,0,0-18.82-.53c-5.61,5.22-6.11,14.49-.08,19.21,8.8,6.88,15.12,16,23,23.71,5.75,5.6,11.21,9.1,19.54,8.44,3.16-.26,6.8,2,9.78,3.88,2.45,1.51,4,4.4,6.38,6.06,9.54,6.69,10.35,15.94,8,27-8.59,0-17.34.12-26.06-.11a8.26,8.26,0,0,1-4.8-2.34c-4.5-4.17-8.77-8.57-13.22-13a49.52,49.52,0,0,0,2-5.61,14.41,14.41,0,0,0-12-17c-7.92-1.12-15.52,5.17-16.06,13.29-.51,7.59,6.2,16,13.67,14.53s11.31,2.08,14.72,6.71c6.61,9,15.23,11.93,25.82,10.27,9.28-1.44,15.63,2.56,22.39,8.89,8.54,8,13,16.34,11.09,27.92-.94,5.52,1.19,9.69,5.37,13.34,3.93,3.45,7.36,7.47,11.45,11.68-9.29,1.66-16.73,1.4-22.81-6.37-4.57-5.84-10.57-10.58-16-15.87.56-2.89,1.38-5.42,1.51-8a13.26,13.26,0,1,0-26.45.55c.46,7.59,7.54,14.22,14.77,12,6.13-1.86,8.94.86,12.27,4.45,1.44,1.58,3.23,2.88,4.49,4.58,8.41,11.44,19.13,17.08,33.7,14.63,2.35-.4,5.77,1.19,7.64,3,9.86,9.43,19.61,19,28.88,29,2.18,2.36,3.25,6.6,3.26,10,.2,49,.14,98,.14,147,0,7.23.33,14.48-.16,21.67a15.57,15.57,0,0,1-3.52,8.3,121.51,121.51,0,0,1-12.42,12.54c-4.83,4.27-5.95,9.53-7.68,15.64C364.7,697,367.63,712,366.37,727a23.83,23.83,0,0,1-.82,3.17H339.4c-7.23,0-14.46,0-21.69,0-5.41,0-8.09-2.23-8.69-8.05-1.86-17.79-3.43-35.68-6.68-53.23-3.55-19.14-8.5-38-20.28-54.3-8.8-12.2-20.41-17.51-35.25-16.22-7.19.63-14.46,2.14-21.55,1.54-8.92-.75-18.13-2.09-26.43-5.25-14.13-5.38-17.92-21.08-14.54-33.78,5.41-20.33,5.63-39.92-1.56-59.8-1.6-4.44-.25-9.92-.44-14.92-.17-4.13.27-8.57-1.13-12.29-1.8-4.8-2.33-9-.66-13.9,1.2-3.48,1.06-7.41,2.09-11,2.73-9.43-.63-16-8.74-20.9-5.25-3.18-10.1-7-15.21-10.42-13.11-8.81-14.6-16.42-5.41-29.36,6.65-9.37,12.86-19.18,20.45-27.74,8-9,9.52-18.54,6.24-29.55a70.15,70.15,0,0,1-1.87-8.63A40.3,40.3,0,0,1,183,295.48c3.58-6.43,7.06-13.54,8-20.69,3.13-23,12.94-43.44,23.53-63.49,21-39.62,53.42-67.79,92.42-88.42a152.84,152.84,0,0,1,63.53-17.95c10.39-.56,20.78-2.68,31.12-2.39a285.67,285.67,0,0,1,42.24,4,244.77,244.77,0,0,1,57.31,17.42c20.23,9.07,38.21,21.32,54.68,35.91,3.56,3.15,10.93,9.77,13.8,13.52,95.83,125.54-14.15,325.69-27.54,348" transform="translate(-138.62 -68.31)"/><path class="cls-6" d="M259.88,273.63a8.23,8.23,0,0,0-8.49,7.67,8.39,8.39,0,0,0,7.83,8.39,7.87,7.87,0,0,0,8.31-7.73,7.72,7.72,0,0,0-7.65-8.33m128.76,56.48a8.12,8.12,0,0,0-7.73,8.45,7.79,7.79,0,0,0,7.78,7.5,8.3,8.3,0,0,0,8.3-8,8.5,8.5,0,0,0-8.35-8M308.9,398.38a8.47,8.47,0,0,0-7.75-8.48,8.3,8.3,0,0,0-8.31,7.86,8,8,0,1,0,16.06.62M471.33,141.82a7.77,7.77,0,0,0-8.16-7.89,8,8,0,0,0-7.81,7.5,8.36,8.36,0,0,0,7.82,8.43,8.17,8.17,0,0,0,8.15-8M585.49,254a8,8,0,0,0-16.08-.1,8.45,8.45,0,0,0,8,8.2,8.35,8.35,0,0,0,8.06-8.1M260.88,346.15c3.45-4.27,6.38-6.57,7.41-9.54,1.22-3.51-3.19-7.78-7.09-7.86s-8.42,3.89-7.33,7.58c.89,3,3.75,5.42,7,9.82M274.11,212.2c-2,2.69-4.9,5.11-5.83,8.13-1.13,3.66,3.31,7.87,7.3,7.59,4.21-.3,6.88-2.73,7.31-7,.39-3.82-3.6-7.76-8.78-8.71m93.56,95.38c0-3.8-4.15-7.87-7.89-7.34-4.12.58-7,3.06-6.92,7.4s2.89,6.79,7,7.36c3.71.51,7.82-3.62,7.81-7.42m160.91-11.11c-.68-3.77-2.61-6.63-7-6.93-4.15-.28-8.12,3.17-7.82,7.14.31,4.14,2.77,6.83,7,7.32,3.82.45,7.84-3.42,7.87-7.53m24.63-99.8c0-4.74-3.48-8.26-7.59-7.92-4.27.35-6.73,2.8-6.92,7.14a6.84,6.84,0,0,0,7.54,7.22c4.36-.25,6.62-2.73,7-6.44M488.85,342.42c3.83.19,8-3.6,7.75-7.43-.26-4.27-2.76-6.89-7.06-7.09s-7,2.18-7.64,6.43c-.6,3.94,3,7.89,7,8.09M424.73,158.8c-.36-3.59-3-5.83-7.16-6.09a7.11,7.11,0,0,0-7.3,7.59c.35,4.36,3.09,6.66,7.22,7s7.43-3.57,7.24-8.49M449.16,398c-.49-4.19-2.68-6.76-7.07-7a7.19,7.19,0,0,0-7.57,7.35,7.34,7.34,0,0,0,7.92,7c4.31-.46,6.47-3.08,6.72-7.41M388.29,131.61l-2.7.12c-1.68,2.61-4.46,5.1-4.79,7.88-.46,3.88,2.6,6.5,6.67,6.25,3.91-.24,7-2.85,6.2-6.78-.57-2.74-3.5-5-5.38-7.47M513,389.37c2.94-2.64,6.11-5.08,8.75-8,3.9-4.29,7.85-7.73,14.31-6.66,1.78.3,3.83-1,5.75-1.51-16.78-.85-21.37,1.7-28.81,16.15m75.8-76.95c-.23-5.39-2.44-8.11-6-7.5-2.15.38-4.93,3.26-5.45,5.48-.86,3.69,2.17,6.32,5.66,5.93,2.28-.25,4.3-2.85,5.75-3.91m-198.08-92.1c-3.41-2.11-5.57-4.51-7.4-4.29s-3.35,3.1-5,4.8c1.79,1.59,3.53,4.34,5.39,4.42s3.8-2.53,7-4.93m170,146.92c2.29-3.06,4.73-4.93,4.51-6.41-.25-1.67-2.72-3.68-4.59-4.15-1-.24-3.76,2.44-3.8,3.87-.06,1.73,1.92,3.52,3.88,6.69M278.67,291.82c-2,3.07-4.39,5.07-4.12,6.6s2.94,3.45,4.84,3.84c.95.2,3.63-2.67,3.54-4-.12-1.8-2.18-3.47-4.26-6.41m302.41,54.71c-3.14-2.29-5-4.67-6.46-4.44-1.69.27-3.69,2.62-4.24,4.46-.26.88,2.44,3.69,3.9,3.78,1.71.09,3.53-1.84,6.8-3.8M502,420.13c-3.06-2.22-4.73-4.34-6.54-4.47-1.42-.09-4.42,2.54-4.24,3.47.38,1.89,2.2,4.52,3.85,4.86s3.62-1.88,6.93-3.86M357.68,151.07c-3.05-2.42-4.82-4.9-6.32-4.74-1.69.18-3.73,2.49-4.43,4.32-.3.78,2.33,3.72,3.8,3.86,1.71.15,3.61-1.68,6.95-3.44M297.34,291.89c-1.88,3.08-4.11,5.15-3.79,6.69s3.08,3.4,4.93,3.6c1.1.11,3.69-2.84,3.52-4.14-.24-1.82-2.42-3.37-4.66-6.15m75-110.15c-2.37,2.95-4.87,4.73-4.69,6.19.19,1.66,2.59,3.75,4.41,4.24,1,.27,3.88-2.28,4-3.67.11-1.72-1.81-3.57-3.68-6.76m5,225.71c-2.9-2.19-4.49-4.27-6.29-4.48-1.28-.13-4.14,2.45-4,3.5.27,1.85,2.07,4.52,3.63,4.83s3.54-1.93,6.65-3.85m-64.22-238.1c-2.32,3-4.76,4.84-4.62,6.42s2.64,3.65,4.49,4.22c.88.28,3.76-2.37,3.8-3.75.06-1.79-1.82-3.64-3.67-6.89M441.34,337.41c-3.25-2-5.06-3.88-6.77-3.8-1.47.07-4.21,2.89-3.95,3.71.59,1.86,2.54,4.21,4.24,4.48,1.46.24,3.34-2.13,6.48-4.39m84.35,86.2c-3-2.12-4.93-4.46-6.53-4.27s-3.54,2.75-4,4.61c-.24.92,2.54,3.69,3.89,3.65,1.82-.06,3.58-2,6.64-4m14-168.51c-2.25,2.78-4.71,4.5-4.62,6.09s2.56,3.66,4.36,4.17c1,.27,3.91-2.26,3.92-3.54,0-1.81-1.85-3.64-3.66-6.72m-93.56,75.22c2.36-3.06,4.79-4.85,4.62-6.35-.19-1.66-2.55-3.66-4.38-4.27-.86-.28-3.72,2.32-3.82,3.73-.1,1.73,1.74,3.58,3.58,6.89M504,186c-3.29-2.06-5.25-4.25-6.7-4-1.66.35-3.47,2.74-4,4.58-.22.81,2.61,3.46,4.05,3.46,1.71,0,3.41-2,6.62-4.09m49.73,38.92c-2.29,2.79-4.78,4.52-4.64,6s2.65,3.63,4.44,4c1.11.24,4-2.23,4-3.49,0-1.76-1.89-3.53-3.77-6.56m-224,9.89c-3-2.22-4.62-4.26-6.39-4.43-1.39-.13-4.37,2.29-4.23,3.15.33,1.84,2,4.46,3.54,4.78s3.67-1.68,7.08-3.5m179.8-37.1c-2.27,3.14-4.32,4.76-4.39,6.46-.07,1.41,2.43,4.31,3.32,4.14,1.84-.36,4.35-2.09,4.74-3.7.36-1.46-1.74-3.51-3.67-6.9m46.19,178.13c-2.85-2.22-4.43-4.32-6.25-4.56-1.29-.17-4.22,2.34-4.09,3.36.22,1.82,2,4.53,3.52,4.81s3.64-1.81,6.82-3.61" transform="translate(-138.62 -68.31)"/><path class="cls-12" d="M259.88,273.63a7.73,7.73,0,0,1,7.65,8.33,7.87,7.87,0,0,1-8.31,7.73,8.43,8.43,0,0,1-7.84-8.39,8.24,8.24,0,0,1,8.5-7.67" transform="translate(-138.62 -68.31)"/><path class="cls-12" d="M388.64,330.12a8.5,8.5,0,0,1,8.36,8,8.32,8.32,0,0,1-8.32,8,7.78,7.78,0,0,1-7.77-7.5,8.11,8.11,0,0,1,7.73-8.44" transform="translate(-138.62 -68.31)"/><path class="cls-12" d="M308.9,398.38a8,8,0,1,1-16.06-.62,8.31,8.31,0,0,1,8.31-7.87,8.48,8.48,0,0,1,7.75,8.49" transform="translate(-138.62 -68.31)"/><path class="cls-12" d="M471.33,141.82a8.16,8.16,0,0,1-8.15,8,8.38,8.38,0,0,1-7.83-8.43,8,8,0,0,1,7.82-7.5,7.77,7.77,0,0,1,8.16,7.89" transform="translate(-138.62 -68.31)"/><path class="cls-12" d="M585.5,254a8,8,0,1,1-16.08-.1,8,8,0,0,1,16.08.1" transform="translate(-138.62 -68.31)"/><path class="cls-12" d="M260.89,346.16c-3.27-4.42-6.14-6.83-7-9.84-1.09-3.67,3.36-7.67,7.32-7.58s8.32,4.36,7.1,7.87c-1,3-4,5.27-7.4,9.55" transform="translate(-138.62 -68.31)"/><path class="cls-12" d="M274.11,212.2c5.18,1,9.17,4.88,8.78,8.71-.43,4.28-3.1,6.7-7.32,7-4,.29-8.42-3.92-7.29-7.58.93-3,3.81-5.44,5.83-8.13" transform="translate(-138.62 -68.31)"/><path class="cls-12" d="M367.67,307.58c0,3.79-4.1,7.94-7.81,7.42-4.11-.57-7-3-7-7.36s2.8-6.82,6.92-7.4c3.74-.52,7.89,3.55,7.89,7.34" transform="translate(-138.62 -68.31)"/><path class="cls-12" d="M528.58,296.47c0,4.11-4.05,8-7.88,7.53-4.21-.49-6.66-3.18-7-7.31s3.68-7.44,7.83-7.15c4.43.3,6.36,3.16,7,6.93" transform="translate(-138.62 -68.31)"/><path class="cls-12" d="M553.21,196.67c-.35,3.71-2.61,6.19-7,6.44a6.84,6.84,0,0,1-7.54-7.22c.19-4.34,2.65-6.79,6.92-7.14,4.11-.34,7.61,3.18,7.59,7.92" transform="translate(-138.62 -68.31)"/><path class="cls-12" d="M488.86,342.42c-4-.19-7.55-4.16-7-8.09.65-4.26,3.34-6.63,7.66-6.43s6.79,2.82,7.05,7.09c.23,3.83-3.91,7.62-7.74,7.43" transform="translate(-138.62 -68.31)"/><path class="cls-12" d="M424.73,158.8c.19,4.92-3.26,8.8-7.25,8.48s-6.86-2.62-7.21-7a7.12,7.12,0,0,1,7.29-7.6c4.19.25,6.81,2.5,7.17,6.09" transform="translate(-138.62 -68.31)"/><path class="cls-12" d="M449.16,398c-.25,4.33-2.41,6.95-6.72,7.42a7.35,7.35,0,0,1-7.92-7,7.18,7.18,0,0,1,7.56-7.35c4.4.2,6.6,2.77,7.08,7" transform="translate(-138.62 -68.31)"/><path class="cls-12" d="M388.29,131.61c1.88,2.47,4.81,4.74,5.38,7.47.8,3.93-2.29,6.54-6.21,6.78s-7.12-2.38-6.66-6.25c.32-2.78,3.1-5.27,4.79-7.88Z" transform="translate(-138.62 -68.31)"/><path class="cls-12" d="M588.84,312.42c-1.46,1.06-3.48,3.66-5.75,3.91-3.48.39-6.52-2.24-5.66-5.93.52-2.22,3.3-5.1,5.45-5.48,3.52-.61,5.74,2.11,6,7.5" transform="translate(-138.62 -68.31)"/><path class="cls-12" d="M390.76,220.32c-3.21,2.4-5.17,5-7,4.93s-3.6-2.84-5.39-4.42c1.65-1.7,3.16-4.57,5-4.79s4,2.17,7.4,4.28" transform="translate(-138.62 -68.31)"/><path class="cls-12" d="M560.74,367.24c-2-3.16-3.94-5-3.88-6.69,0-1.43,2.84-4.11,3.81-3.87,1.86.47,4.33,2.48,4.58,4.15.22,1.47-2.23,3.35-4.51,6.41" transform="translate(-138.62 -68.31)"/><path class="cls-12" d="M278.67,291.82c2.09,2.94,4.14,4.61,4.26,6.42.09,1.35-2.59,4.21-3.54,4-1.9-.4-4.56-2.23-4.85-3.84s2.09-3.53,4.13-6.6" transform="translate(-138.62 -68.31)"/><path class="cls-12" d="M581.08,346.53c-3.27,2-5.09,3.89-6.8,3.79-1.46-.08-4.16-2.89-3.9-3.78.55-1.83,2.55-4.18,4.25-4.45,1.44-.23,3.3,2.15,6.45,4.44" transform="translate(-138.62 -68.31)"/><path class="cls-12" d="M502,420.13c-3.31,2-5.39,4.19-6.93,3.87s-3.47-3-3.85-4.87c-.18-.93,2.82-3.57,4.24-3.47,1.81.14,3.48,2.25,6.54,4.47" transform="translate(-138.62 -68.31)"/><path class="cls-12" d="M357.68,151.07c-3.34,1.76-5.23,3.6-6.95,3.44-1.47-.14-4.09-3.08-3.8-3.86.7-1.83,2.73-4.14,4.43-4.32,1.5-.15,3.27,2.32,6.32,4.74" transform="translate(-138.62 -68.31)"/><path class="cls-12" d="M297.33,291.89c2.24,2.77,4.43,4.33,4.67,6.15.17,1.3-2.41,4.25-3.52,4.13-1.85-.2-4.62-2-4.94-3.58s1.92-3.62,3.79-6.7" transform="translate(-138.62 -68.31)"/><path class="cls-12" d="M372.34,181.74c1.87,3.2,3.78,5,3.68,6.76-.08,1.39-2.94,3.94-4,3.67-1.82-.49-4.22-2.59-4.41-4.24-.18-1.47,2.32-3.24,4.69-6.19" transform="translate(-138.62 -68.31)"/><path class="cls-12" d="M377.33,407.45c-3.11,1.92-5.13,4.14-6.66,3.84s-3.36-3-3.62-4.82c-.15-1,2.71-3.63,4-3.49,1.8.19,3.4,2.28,6.29,4.47" transform="translate(-138.62 -68.31)"/><path class="cls-12" d="M313.1,169.36c1.86,3.24,3.73,5.08,3.68,6.88,0,1.38-2.92,4-3.8,3.75-1.86-.58-4.33-2.6-4.48-4.22s2.29-3.39,4.6-6.41" transform="translate(-138.62 -68.31)"/><path class="cls-12" d="M441.34,337.41c-3.14,2.26-5,4.63-6.48,4.39-1.7-.27-3.65-2.63-4.24-4.48-.26-.83,2.48-3.64,3.95-3.71,1.71-.08,3.53,1.85,6.77,3.8" transform="translate(-138.62 -68.31)"/><path class="cls-12" d="M525.69,423.61c-3.06,2-4.82,3.93-6.64,4-1.35,0-4.12-2.74-3.89-3.66.46-1.86,2.42-4.42,4-4.61s3.49,2.16,6.53,4.27" transform="translate(-138.62 -68.31)"/><path class="cls-12" d="M539.72,255.1c1.81,3.08,3.67,4.91,3.66,6.72,0,1.28-2.92,3.81-3.92,3.54-1.8-.5-4.28-2.62-4.36-4.17s2.37-3.31,4.62-6.09" transform="translate(-138.62 -68.31)"/><path class="cls-12" d="M446.15,330.32c-1.83-3.31-3.68-5.16-3.56-6.89.08-1.41,3-4,3.81-3.73,1.83.6,4.19,2.62,4.38,4.27.17,1.5-2.26,3.29-4.63,6.35" transform="translate(-138.62 -68.31)"/><path class="cls-12" d="M504,186c-3.22,2.11-4.92,4.08-6.62,4.09-1.44,0-4.27-2.65-4.05-3.46.5-1.84,2.31-4.24,4-4.58,1.44-.3,3.41,1.89,6.7,4" transform="translate(-138.62 -68.31)"/><path class="cls-12" d="M553.76,224.93c1.87,3,3.79,4.81,3.77,6.57,0,1.27-2.86,3.74-4,3.49-1.79-.4-4.31-2.48-4.44-4s2.35-3.23,4.64-6" transform="translate(-138.62 -68.31)"/><path class="cls-12" d="M329.79,234.83c-3.41,1.82-5.5,3.83-7.08,3.5s-3.21-2.94-3.54-4.78c-.14-.86,2.84-3.28,4.23-3.15,1.77.17,3.37,2.2,6.39,4.43" transform="translate(-138.62 -68.31)"/><path class="cls-12" d="M509.59,197.73c1.93,3.39,4,5.44,3.67,6.9-.39,1.61-2.9,3.35-4.74,3.69-.89.18-3.39-2.71-3.32-4.13.07-1.7,2.12-3.32,4.39-6.46" transform="translate(-138.62 -68.31)"/><path class="cls-12" d="M555.78,375.86c-3.18,1.8-5.22,3.9-6.82,3.61s-3.3-3-3.52-4.81c-.13-1,2.8-3.53,4.09-3.36,1.82.24,3.4,2.34,6.25,4.56" transform="translate(-138.62 -68.31)"/></g></g><text class="cls-13" transform="translate(521.79 206.63)">SYSTEMS <tspan class="cls-14"><tspan x="0" y="207.58">NEURAL</tspan><tspan class="cls-15" x="1149.65" y="207.58"> </tspan></tspan><tspan class="cls-16"><tspan x="0" y="335.32">ENGINEERING </tspan></tspan><tspan class="cls-17"><tspan x="0" y="468.38">LABOR</tspan><tspan class="cls-18" x="585.64" y="468.38">A</tspan><tspan x="685.38" y="468.38">TO</tspan><tspan class="cls-19" x="919" y="468.38">R</tspan><tspan class="cls-20" x="1034.21" y="468.38">Y</tspan></tspan><tspan class="cls-21"><tspan x="0" y="596.13"> </tspan></tspan></text></svg>